<svg width="202" height="47" viewBox="0 0 202 47" xmlns="http://www.w3.org/2000/svg"><title>logo-nutrience</title><g fill="none" fill-rule="evenodd"><path d="M37.439 12.081c.166 0 .209-.353.04-.353H29.82c-.169 0-.21.353-.042.353.545 0 1.549 1.501 1.172 3.7L27.77 34.64 14 11.728H6.007c-.169 0-.21.353-.043.353.503 0 1.424 1.501 1.047 3.7L2.45 43.098c-.377 2.028-1.801 3.7-2.302 3.7-.166 0-.209.177-.041.177h7.658c.168 0 .21-.176.042-.176-.587 0-1.548-1.673-1.172-3.701l3.934-23.703 16.866 27.58h2.47l5.233-31.194c.375-2.199 1.798-3.7 2.3-3.7m21.681 32.276c.167 0 .21-.308.042-.308-.588 0-1.55-1.496-1.172-3.613l3.725-22.381h-7.828c-.166 0-.207.308-.041.308.586 0 1.549 1.498 1.172 3.613l-2.092 12.69c-.586 3.39-3.475 5.905-6.529 5.905-3.013 0-5.022-1.986-4.354-5.906l2.762-16.61h-7.825c-.168 0-.21.308-.041.308.584 0 1.546 1.498 1.17 3.613l-2.093 12.69c-1.214 7.093 1.8 10.262 6.822 10.262 5.525 0 7.953-2.553 8.917-3.211l-.463 2.64h7.828zm13.434.046l2.134-3.877c.126-.134.126-.44-.292-.223-3.389 1.498-5.483.352-4.772-3.918l2.47-14.849h5.064l1.298-3.48h-5.693l1.004-5.991h-.878c-2.05 2.201-6.11 6.168-9.417 8.327l-.207 1.144h2.718l-2.718 16.301c-.797 4.804 2.133 7.092 5.563 7.092 1.803 0 2.764-.308 3.726-.526M93.73 23.739l1.006-5.994c-3.224-.438-6.739 1.806-8.33 4.32l.671-4.01h-7.701c-.168 0-.21.308-.043.308.585 0 1.549 1.498 1.213 3.613l-3.097 18.46c-.376 2.115-1.84 3.613-2.427 3.613-.166 0-.209.308-.041.308h9.71c.167 0 .21-.308.042-.308-.587 0-1.55-1.498-1.172-3.613l1.84-10.97c.543-3.39 2.765-6.258 5.777-6.258.711 0 1.549.047 2.176.618.167.174.335.088.377-.087m2.636-5.376c.587 0 1.55 1.497 1.213 3.613l-3.096 18.46c-.377 2.116-1.84 3.613-2.428 3.613-.167 0-.209.308-.042.308h9.67c.167 0 .208-.308.04-.308-.587 0-1.546-1.497-1.172-3.613l3.725-22.381H96.41c-.169 0-.209.308-.043.308m22.933 2.335c2.972 0 3.1 2.557 1.801 5.065-2.508 4.805-9.459 5.33-10.21 5.201 1.045-6.346 4.938-10.266 8.409-10.266zm6.531 16.523c.084-.22-.169-.262-.377 0-.503.661-4.185 3.831-8.285 3.831-3.976 0-6.067-2.774-6.365-6.652 1.72.174 12.263-.882 15.613-7.754 2.68-5.154-1.005-9.473-6.947-9.209-6.069.222-13.435 5.026-14.9 13.834-1.214 7.183 2.594 13.656 10.925 13.656 5.439 0 7.114-1.672 8.16-2.198l2.176-5.508zm20.385-19.783c-5.442 0-7.997 2.732-8.833 3.394l.461-2.777h-7.746c-.164 0-.206.308-.04.308.589 0 1.547 1.498 1.215 3.613l-3.099 18.46c-.376 2.115-1.84 3.613-2.425 3.613-.167 0-.213.308-.044.308h9.665c.17 0 .213-.308.044-.308-.584 0-1.547-1.498-1.173-3.613l2.052-12.425c.545-3.17 3.434-6.123 6.53-6.123 3.097 0 4.938 2.42 4.352 6.123l-2.09 12.425c-.377 2.115-1.845 3.613-2.428 3.613-.168 0-.21.308-.044.308h9.67c.167 0 .208-.308.041-.308-.583 0-1.55-1.498-1.171-3.613l2.09-12.597c1.05-6.305-1.34-10.401-7.027-10.401m23.814-.001c-7.62 0-14.066 6.301-15.32 13.748-1.34 8.02 3.43 13.745 10.757 13.745 3.934 0 6.778-1.322 7.616-1.716l2.386-5.906c.086-.223-.083-.262-.381 0-.663.62-3.513 3.437-7.361 3.437-4.019 0-7.663-2.817-6.529-9.52 1.086-6.693 4.52-10.042 9.08-10.042 3.349 0 4.775 2.555 5.064 2.951.127.134.337.175.38 0l.919-5.373c-1.673-1.016-4.312-1.324-6.611-1.324m21.305 3.261c2.967 0 3.096 2.557 1.796 5.065-2.51 4.805-9.459 5.33-10.214 5.201 1.052-6.346 4.943-10.266 8.418-10.266m7.112 5.948c2.677-5.154-1.006-9.473-6.95-9.209-6.066.222-13.435 5.026-14.896 13.834-1.215 7.183 2.594 13.656 10.92 13.656 5.44 0 7.116-1.672 8.164-2.198l2.177-5.508c.081-.22-.169-.262-.377 0-.501.661-4.187 3.831-8.285 3.831-3.985 0-6.073-2.774-6.364-6.652 1.712.174 12.262-.882 15.611-7.754m2.241-7.304c.052 0 .098-.001.145-.005a.386.386 0 0 0 .121-.027.196.196 0 0 0 .084-.073.226.226 0 0 0 .032-.133.205.205 0 0 0-.03-.117.17.17 0 0 0-.072-.065.28.28 0 0 0-.102-.032.798.798 0 0 0-.115-.009h-.298v.461h.235zm.1-.643c.172 0 .298.034.382.102.082.07.125.174.125.311 0 .132-.037.228-.108.289a.517.517 0 0 1-.274.106l.414.639h-.242l-.394-.622h-.238v.622h-.224v-1.447h.559zm-1.02 1.142c.052.127.123.241.212.335a1.013 1.013 0 0 0 .733.305.987.987 0 0 0 .72-.305 1.01 1.01 0 0 0 .218-.335c.051-.13.077-.27.077-.423 0-.148-.026-.286-.077-.414a.99.99 0 0 0-.217-.333.989.989 0 0 0-.721-.302 1.013 1.013 0 0 0-.733.302 1.05 1.05 0 0 0-.213.333 1.05 1.05 0 0 0-.08.414c0 .153.026.293.08.423zm-.205-.91a1.242 1.242 0 0 1 .669-.65c.148-.063.309-.094.48-.094.171 0 .33.031.479.094.15.062.284.149.395.26.112.11.201.24.268.39.067.15.1.313.1.487 0 .178-.033.343-.1.495a1.208 1.208 0 0 1-.663.654 1.249 1.249 0 0 1-.478.093 1.258 1.258 0 0 1-.88-.352 1.227 1.227 0 0 1-.368-.89c0-.174.031-.337.098-.487z" fill="#000" class="color-changer"/><path d="M96.34 3.057a4.864 4.864 0 0 1 1.03-.472l.005-.005h.002a3.785 3.785 0 0 1 3.652.781c.687.6.996 1.582 1.21 2.567.16.732.213 1.492.351 2.226.227 1.203.758 2.306 1.611 2.938 1.078.8 2.791.43 3.837-.907.314-.41.605-.913.751-1.444.308-1.11.192-2.404-.139-3.425-.238-.726-.543-1.418-.957-2.006-1.026-1.488-2.445-2.406-4.02-2.836-1.715-.474-3.662.024-5.313.962-1.492.843-2.02 1.621-2.02 1.621" fill="#CB1F41"/><path d="M110.227 11.164a5.11 5.11 0 0 1-1.033.474l-.005.003v-.003c-1.292.397-2.619.118-3.65-.78-.69-.599-.997-1.58-1.212-2.566-.16-.73-.213-1.49-.352-2.225-.226-1.203-.758-2.308-1.612-2.94-1.077-.799-2.79-.43-3.835.909a4.275 4.275 0 0 0-.748 1.447c-.31 1.105-.196 2.403.138 3.422.237.726.544 1.418.954 2.007 1.029 1.487 2.447 2.407 4.02 2.838 1.716.473 3.667-.028 5.315-.965 1.49-.843 2.02-1.621 2.02-1.621" fill="#CB1F41"/><path d="M98.203 3.999c-1.471.643-1.992 1.237-1.992 1.237.31-.154.763-.301 1.016-.362h.007c1.274-.301 2.58-.089 3.6.595.679.456.984 1.206 1.195 1.959.157.556.21 1.137.346 1.697.224.919.748 1.76 1.588 2.243.358.204.787.31 1.236.32h.134a3.603 3.603 0 0 0 2.414-1.013c.31-.313.598-.696.74-1.101.304-.847.19-1.834-.135-2.613-.234-.556-.536-1.084-.944-1.532-1.012-1.135-2.412-1.836-3.965-2.165a6.559 6.559 0 0 0-1.373-.138c-1.308 0-2.666.345-3.867.873"/><path d="M105.848 11.52a4.12 4.12 0 0 1-.764-.45c-.682-.506-.984-1.336-1.196-2.169-.158-.615-.21-1.26-.347-1.88-.224-1.018-.747-1.95-1.59-2.484-.578-.367-1.339-.442-2.082-.253.267.122.525.272.766.45.677.506.983 1.336 1.194 2.17.158.617.21 1.26.346 1.88.224 1.018.747 1.95 1.589 2.485.58.368 1.341.439 2.084.252" fill="#231F20"/></g></svg>